<svg width="451" height="354" xmlns="http://www.w3.org/2000/svg" xmlns:xlink="http://www.w3.org/1999/xlink" xml:space="preserve" overflow="hidden"><g transform="translate(-1971 -1061)"><path d="M2382 1259 2382 1409 2237 1409 2237 1347.64" stroke="#000000" stroke-width="2.29167" stroke-linejoin="round" stroke-miterlimit="10" fill="none" fill-rule="evenodd"/><path d="M2346.5 1190.5 2418.71 1190.5" stroke="#000000" stroke-width="4.58333" stroke-linejoin="round" stroke-miterlimit="10" fill="none" fill-rule="evenodd"/><path d="M2363.5 1206.5 2402.61 1206.5" stroke="#000000" stroke-width="9.16667" stroke-linejoin="round" stroke-miterlimit="10" fill="none" fill-rule="evenodd"/><path d="M2346.5 1242.5 2418.71 1242.5" stroke="#000000" stroke-width="4.58333" stroke-linejoin="round" stroke-miterlimit="10" fill="none" fill-rule="evenodd"/><path d="M2363.5 1259.5 2402.61 1259.5" stroke="#000000" stroke-width="9.16667" stroke-linejoin="round" stroke-miterlimit="10" fill="none" fill-rule="evenodd"/><path d="M2382 1209 2382 1238.49" stroke="#000000" stroke-width="2.29167" stroke-linecap="round" stroke-linejoin="round" stroke-miterlimit="10" stroke-dasharray="6.875 9.16667" fill="none" fill-rule="evenodd"/><path d="M2230.5 1129.5C2230.5 1125.63 2233.63 1122.5 2237.5 1122.5 2241.37 1122.5 2244.5 1125.63 2244.5 1129.5 2244.5 1133.37 2241.37 1136.5 2237.5 1136.5 2233.63 1136.5 2230.5 1133.37 2230.5 1129.5Z" stroke="#000000" stroke-width="4.58333" stroke-linejoin="round" stroke-miterlimit="10" fill="#FFFFFF" fill-rule="evenodd"/><path d="M2240.5 1136.5 2248.21 1185.79" stroke="#000000" stroke-width="4.58333" stroke-linejoin="round" stroke-miterlimit="10" fill="none" fill-rule="evenodd"/><rect x="2225.5" y="1267.5" width="24" height="80.0001" stroke="#000000" stroke-width="4.58333" stroke-miterlimit="8" fill="#FFFFFF"/><path d="M2024.5 1156.5 2084.72 1156.5" stroke="#000000" stroke-width="4.58333" stroke-linejoin="round" stroke-miterlimit="10" fill="none" fill-rule="evenodd"/><path d="M2024.5 1195.5 2084.95 1195.5" stroke="#000000" stroke-width="4.58333" stroke-linejoin="round" stroke-miterlimit="10" fill="none" fill-rule="evenodd"/><path d="M2048.5 1176.5C2048.5 1173.74 2050.96 1171.5 2054 1171.5 2057.04 1171.5 2059.5 1173.74 2059.5 1176.5 2059.5 1179.26 2057.04 1181.5 2054 1181.5 2050.96 1181.5 2048.5 1179.26 2048.5 1176.5Z" stroke="#000000" stroke-width="3.4375" stroke-linejoin="round" stroke-miterlimit="10" fill-rule="evenodd"/><rect x="2042.5" y="1267.5" width="24.0001" height="80.0001" stroke="#000000" stroke-width="4.58333" stroke-miterlimit="8" fill="#FFFFFF"/><path d="M2237 1185 2237 1266.19" stroke="#000000" stroke-width="2.29167" stroke-linejoin="round" stroke-miterlimit="10" fill="none" fill-rule="evenodd"/><path d="M2054 1195 2054 1265.76" stroke="#000000" stroke-width="2.29167" stroke-linejoin="round" stroke-miterlimit="10" fill="none" fill-rule="evenodd"/><path d="M2054 1349 2054 1409.47" stroke="#000000" stroke-width="2.29167" stroke-linejoin="round" stroke-miterlimit="10" fill="none" fill-rule="evenodd"/><path d="M2237 1070 2237 1122.3" stroke="#000000" stroke-width="2.29167" stroke-linejoin="round" stroke-miterlimit="10" fill="none" fill-rule="evenodd"/><path d="M2230.5 1069.5C2230.5 1065.63 2233.63 1062.5 2237.5 1062.5 2241.37 1062.5 2244.5 1065.63 2244.5 1069.5 2244.5 1073.37 2241.37 1076.5 2237.5 1076.5 2233.63 1076.5 2230.5 1073.37 2230.5 1069.5Z" stroke="#000000" stroke-width="3.4375" stroke-linejoin="round" stroke-miterlimit="10" fill-rule="evenodd"/><path d="M2047.5 1406.5C2047.5 1402.63 2050.63 1399.5 2054.5 1399.5 2058.37 1399.5 2061.5 1402.63 2061.5 1406.5 2061.5 1410.37 2058.37 1413.5 2054.5 1413.5 2050.63 1413.5 2047.5 1410.37 2047.5 1406.5Z" stroke="#000000" stroke-width="3.4375" stroke-linejoin="round" stroke-miterlimit="10" fill-rule="evenodd"/><path d="M2230.5 1178C2230.5 1174.41 2233.63 1171.5 2237.5 1171.5 2241.37 1171.5 2244.5 1174.41 2244.5 1178 2244.5 1181.59 2241.37 1184.5 2237.5 1184.5 2233.63 1184.5 2230.5 1181.59 2230.5 1178Z" stroke="#000000" stroke-width="4.58333" stroke-linejoin="round" stroke-miterlimit="10" fill="#FFFFFF" fill-rule="evenodd"/><path d="M2054 1154.36 2054 1070 2382 1070 2382 1188" stroke="#000000" stroke-width="2.29167" stroke-linejoin="round" stroke-miterlimit="10" fill="none" fill-rule="evenodd"/><path d="M2202.08 1306.82 2186.32 1306.82 2187.47 1305.67 2187.47 1407C2187.47 1407.63 2186.95 1408.15 2186.32 1408.15L1999 1408.15C1998.37 1408.15 1997.85 1407.63 1997.85 1407L1997.85 1304C1997.85 1303.37 1998.37 1302.85 1999 1302.85L2019.18 1302.85 2019.18 1305.15 1999 1305.15 2000.15 1304 2000.15 1407 1999 1405.85 2186.32 1405.85 2185.17 1407 2185.17 1305.67C2185.17 1305.04 2185.69 1304.52 2186.32 1304.52L2202.08 1304.52ZM2197.5 1296.5 2225 1305.67 2197.5 1314.84ZM2014.6 1294.83 2042.1 1304 2014.6 1313.17Z"/><text font-family="Times New Roman,Times New Roman_MSFontService,sans-serif" font-weight="400" font-size="41" transform="matrix(1 0 0 1 2257.14 1168)">K</text><text font-family="Times New Roman,Times New Roman_MSFontService,sans-serif" font-weight="400" font-size="41" transform="matrix(1 0 0 1 1996.42 1191)">P</text><text font-family="Times New Roman,Times New Roman_MSFontService,sans-serif" font-style="italic" font-weight="400" font-size="41" transform="matrix(1 0 0 1 2265.6 1323)">R</text><text font-family="Times New Roman,Times New Roman_MSFontService,sans-serif" font-weight="400" font-size="28" transform="matrix(1 0 0 1 2290.81 1332)">2</text><text font-family="Times New Roman,Times New Roman_MSFontService,sans-serif" font-style="italic" font-weight="400" font-size="41" transform="matrix(1 0 0 1 2080.75 1322)">R</text><text font-family="Times New Roman,Times New Roman_MSFontService,sans-serif" font-weight="400" font-size="28" transform="matrix(1 0 0 1 2105.96 1331)">1</text><text font-family="Times New Roman,Times New Roman_MSFontService,sans-serif" font-style="italic" font-weight="400" font-size="41" transform="matrix(1 0 0 1 2071.47 1136)">C</text></g></svg>