<svg width="633" height="275" xmlns="http://www.w3.org/2000/svg" xmlns:xlink="http://www.w3.org/1999/xlink" xml:space="preserve" overflow="hidden"><defs><linearGradient x1="45" y1="33" x2="0" y2="33" gradientUnits="userSpaceOnUse" spreadMethod="reflect" id="fill0"><stop offset="0" stop-color="#A6A6A6"/><stop offset="0.29" stop-color="#FFFFFF"/><stop offset="0.74" stop-color="#FFFFFF"/><stop offset="1" stop-color="#595959"/></linearGradient></defs><g transform="translate(-1887 -1105)"><rect x="1889.5" y="1267.5" width="522" height="17.0002" stroke="#000000" stroke-width="4.58333" stroke-miterlimit="8" fill="#FFFFFF"/><path d="M2121 1226C2121 1223.24 2123.24 1221 2126 1221 2128.76 1221 2131 1223.24 2131 1226 2131 1228.76 2128.76 1231 2126 1231 2123.24 1231 2121 1228.76 2121 1226Z" fill-rule="evenodd"/><path d="M2086.5 1226.5C2086.5 1204.41 2104.41 1186.5 2126.5 1186.5 2148.59 1186.5 2166.5 1204.41 2166.5 1226.5 2166.5 1248.59 2148.59 1266.5 2126.5 1266.5 2104.41 1266.5 2086.5 1248.59 2086.5 1226.5ZM2095.86 1226.5C2095.86 1243.42 2109.58 1257.15 2126.5 1257.15 2143.42 1257.15 2157.14 1243.42 2157.14 1226.5 2157.14 1209.58 2143.42 1195.86 2126.5 1195.86 2109.58 1195.86 2095.86 1209.58 2095.86 1226.5Z" stroke="#000000" stroke-width="4.58333" stroke-linejoin="round" stroke-miterlimit="10" fill="none" fill-rule="evenodd"/><path d="M2121 1325C2121 1322.24 2123.24 1320 2126 1320 2128.76 1320 2131 1322.24 2131 1325 2131 1327.76 2128.76 1330 2126 1330 2123.24 1330 2121 1327.76 2121 1325Z" fill-rule="evenodd"/><path d="M2086.5 1325.5C2086.5 1303.41 2104.41 1285.5 2126.5 1285.5 2148.59 1285.5 2166.5 1303.41 2166.5 1325.5 2166.5 1347.59 2148.59 1365.5 2126.5 1365.5 2104.41 1365.5 2086.5 1347.59 2086.5 1325.5ZM2095.85 1325.5C2095.85 1342.43 2109.57 1356.15 2126.5 1356.15 2143.43 1356.15 2157.15 1342.43 2157.15 1325.5 2157.15 1308.57 2143.43 1294.85 2126.5 1294.85 2109.57 1294.85 2095.85 1308.57 2095.85 1325.5Z" stroke="#000000" stroke-width="4.58333" stroke-linejoin="round" stroke-miterlimit="10" fill="none" fill-rule="evenodd"/><path d="M1993 1226C1993 1223.24 1995.24 1221 1998 1221 2000.76 1221 2003 1223.24 2003 1226 2003 1228.76 2000.76 1231 1998 1231 1995.24 1231 1993 1228.76 1993 1226Z" fill-rule="evenodd"/><path d="M1958.5 1226.5C1958.5 1204.41 1976.41 1186.5 1998.5 1186.5 2020.59 1186.5 2038.5 1204.41 2038.5 1226.5 2038.5 1248.59 2020.59 1266.5 1998.5 1266.5 1976.41 1266.5 1958.5 1248.59 1958.5 1226.5ZM1967.93 1226.5C1967.93 1243.38 1981.62 1257.07 1998.5 1257.07 2015.38 1257.07 2029.07 1243.38 2029.07 1226.5 2029.07 1209.62 2015.38 1195.93 1998.5 1195.93 1981.62 1195.93 1967.93 1209.62 1967.93 1226.5Z" stroke="#000000" stroke-width="4.58333" stroke-linejoin="round" stroke-miterlimit="10" fill="none" fill-rule="evenodd"/><path d="M1990 1325C1990 1322.24 1992.46 1320 1995.5 1320 1998.54 1320 2001 1322.24 2001 1325 2001 1327.76 1998.54 1330 1995.5 1330 1992.46 1330 1990 1327.76 1990 1325Z" fill-rule="evenodd"/><path d="M1955.5 1325.5C1955.5 1303.41 1973.41 1285.5 1995.5 1285.5 2017.59 1285.5 2035.5 1303.41 2035.5 1325.5 2035.5 1347.59 2017.59 1365.5 1995.5 1365.5 1973.41 1365.5 1955.5 1347.59 1955.5 1325.5ZM1964.77 1325.5C1964.77 1342.47 1978.53 1356.23 1995.5 1356.23 2012.47 1356.23 2026.23 1342.47 2026.23 1325.5 2026.23 1308.53 2012.47 1294.77 1995.5 1294.77 1978.53 1294.77 1964.77 1308.53 1964.77 1325.5Z" stroke="#000000" stroke-width="4.58333" stroke-linejoin="round" stroke-miterlimit="10" fill="none" fill-rule="evenodd"/><rect x="0" y="0" width="45" height="66" stroke="#000000" stroke-width="4.58333" stroke-miterlimit="8" fill="url(#fill0)" transform="matrix(-1 0 0 1 2359.5 1156.5)"/><rect x="2327.5" y="1310.5" width="16.9998" height="44" stroke="#000000" stroke-width="4.58333" stroke-miterlimit="8" fill="#FFFFFF"/><path d="M0 0 0.000360892 85.6834" stroke="#000000" stroke-width="3.4375" stroke-linejoin="round" stroke-miterlimit="10" stroke-dasharray="13.75 10.3125" fill="none" fill-rule="evenodd" transform="matrix(-1 0 0 1 2335.5 1222.5)"/><text font-family="SimSun,SimSun_MSFontService,sans-serif" font-weight="400" font-size="41" transform="matrix(1 0 0 1 2083.79 1161)">轧辊</text><text font-family="SimSun,SimSun_MSFontService,sans-serif" font-weight="400" font-size="41" transform="matrix(1 0 0 1 2370.86 1207)">放射源</text><text font-family="SimSun,SimSun_MSFontService,sans-serif" font-weight="400" font-size="41" transform="matrix(1 0 0 1 2359.46 1347)">探测器</text></g></svg>