<svg width="243" height="458" xmlns="http://www.w3.org/2000/svg" xmlns:xlink="http://www.w3.org/1999/xlink" xml:space="preserve" overflow="hidden"><g transform="translate(-2103 -1010)"><path d="M2230 1046 2230 1201.4" stroke="#000000" stroke-width="2.29167" stroke-miterlimit="8" stroke-dasharray="9.16667 6.875" fill="none" fill-rule="evenodd"/><path d="M0 0 50.4813 228.373" stroke="#000000" stroke-width="2.29167" stroke-miterlimit="8" stroke-dasharray="9.16667 6.875" fill="none" fill-rule="evenodd" transform="matrix(1 0 0 -1 2179 1429.37)"/><path d="M2181.15 1278 2181.15 1410.48 2178.85 1410.48 2178.85 1278ZM2189.17 1405.9 2180 1433.4 2170.83 1405.9Z" fill="#EE0000"/><path d="M0.962488-0.621732 38.5295 57.5349 36.6045 58.7783-0.962488 0.621732ZM42.78 49.3328 50.0016 77.4064 27.3802 59.2805Z" transform="matrix(1 0 0 -1 2180 1276.41)"/><path d="M2172 1277.5C2172 1273.36 2175.81 1270 2180.5 1270 2185.19 1270 2189 1273.36 2189 1277.5 2189 1281.64 2185.19 1285 2180.5 1285 2175.81 1285 2172 1281.64 2172 1277.5Z" fill-rule="evenodd"/><path d="M1.11883-0.247314 46.6538 205.749 44.4162 206.243-1.11883 0.247314ZM53.4963 199.542 50.4813 228.373 35.5951 203.499Z" fill="#EE0000" transform="matrix(1 0 0 -1 2179 1276.37)"/><text font-family="Times New Roman,Times New Roman_MSFontService,sans-serif" font-style="italic" font-weight="400" font-size="41" transform="matrix(1 0 0 1 2128.97 1433)">G</text><text font-family="Times New Roman,Times New Roman_MSFontService,sans-serif" font-style="italic" font-weight="400" font-size="41" transform="matrix(1 0 0 1 2238.95 1063)">F</text><text font-family="Times New Roman,Times New Roman_MSFontService,sans-serif" font-style="italic" font-weight="400" font-size="41" transform="matrix(1 0 0 1 2240.52 1212)">F</text><text font-family="SimSun,SimSun_MSFontService,sans-serif" font-weight="400" font-size="28" transform="matrix(1 0 0 1 2265.73 1221)">合</text><text font-family="Times New Roman,Times New Roman_MSFontService,sans-serif" font-weight="400" font-size="41" transform="matrix(1 0 0 1 2217.52 1285)">150</text><text font-family="SimSun,SimSun_MSFontService,sans-serif" font-weight="400" font-size="41" transform="matrix(1 0 0 1 2279.4 1285)">°</text><path d="M2195.79 1254.58C2206.59 1266.91 2205.36 1285.67 2193.03 1296.47 2189.31 1299.72 2184.83 1302 2180.01 1303.09" stroke="#000000" stroke-width="2.29167" stroke-miterlimit="8" fill="none" fill-rule="evenodd"/></g></svg>