<svg width="384" height="407" viewBox="1827 1043 384 407" xmlns="http://www.w3.org/2000/svg" xmlns:xlink="http://www.w3.org/1999/xlink" xml:space="preserve"><defs><clipPath id="crop"><rect x="1827" y="1043" width="384" height="407"/></clipPath></defs><g clip-path="url(#crop)"><text font-family="Book Antiqua,Book Antiqua_MSFontService,sans-serif" font-style="italic" font-weight="400" font-size="41" transform="matrix(1 0 0 1 1468.25 1101)">v</text><text font-family="Times New Roman,Times New Roman_MSFontService,sans-serif" font-style="italic" font-weight="400" font-size="28" transform="matrix(1 0 0 1 1488.88 1110)">y</text><text font-family="Times New Roman,Times New Roman_MSFontService,sans-serif" font-style="italic" font-weight="400" font-size="41" transform="matrix(1 0 0 1 1767.59 1362)">t</text><text font-family="Times New Roman,Times New Roman_MSFontService,sans-serif" font-style="italic" font-weight="400" font-size="41" transform="matrix(1 0 0 1 1471.28 1340)">O</text><text font-family="Times New Roman,Times New Roman_MSFontService,sans-serif" font-weight="400" font-size="48" transform="matrix(1 0 0 1 1611.25 1410)">A</text><path d="M1768.08 1323.15 1516 1323.15 1514.85 1322 1514.85 1092.92 1517.15 1092.92 1517.15 1322 1516 1320.85 1768.08 1320.85ZM1763.5 1312.83 1791 1322 1763.5 1331.17ZM1506.83 1097.5 1516 1070 1525.17 1097.5Z"/><text font-family="Book Antiqua,Book Antiqua_MSFontService,sans-serif" font-style="italic" font-weight="400" font-size="41" transform="matrix(1 0 0 1 1852.27 1101)">v</text><text font-family="Times New Roman,Times New Roman_MSFontService,sans-serif" font-style="italic" font-weight="400" font-size="28" transform="matrix(1 0 0 1 1872.89 1110)">y</text><text font-family="Times New Roman,Times New Roman_MSFontService,sans-serif" font-style="italic" font-weight="400" font-size="41" transform="matrix(1 0 0 1 2151.61 1362)">t</text><text font-family="Times New Roman,Times New Roman_MSFontService,sans-serif" font-style="italic" font-weight="400" font-size="41" transform="matrix(1 0 0 1 1855.3 1340)">O</text><path d="M2152.08 1323.15 1900 1323.15 1898.85 1322 1898.85 1092.92 1901.15 1092.92 1901.15 1322 1900 1320.85 2152.08 1320.85ZM2147.5 1312.83 2175 1322 2147.5 1331.17ZM1890.83 1097.5 1900 1070 1909.17 1097.5Z"/><text font-family="Book Antiqua,Book Antiqua_MSFontService,sans-serif" font-style="italic" font-weight="400" font-size="41" transform="matrix(1 0 0 1 2236.29 1101)">v</text><text font-family="Times New Roman,Times New Roman_MSFontService,sans-serif" font-style="italic" font-weight="400" font-size="28" transform="matrix(1 0 0 1 2256.91 1110)">y</text><text font-family="Times New Roman,Times New Roman_MSFontService,sans-serif" font-style="italic" font-weight="400" font-size="41" transform="matrix(1 0 0 1 2535.63 1362)">t</text><text font-family="Times New Roman,Times New Roman_MSFontService,sans-serif" font-style="italic" font-weight="400" font-size="41" transform="matrix(1 0 0 1 2239.31 1340)">O</text><text font-family="Times New Roman,Times New Roman_MSFontService,sans-serif" font-weight="400" font-size="48" transform="matrix(1 0 0 1 2379.39 1410)">C</text><path d="M2536.08 1323.15 2284 1323.15 2282.85 1322 2282.85 1092.92 2285.15 1092.92 2285.15 1322 2284 1320.85 2536.08 1320.85ZM2531.5 1312.83 2559 1322 2531.5 1331.17ZM2274.83 1097.5 2284 1070 2293.17 1097.5Z"/><text font-family="Book Antiqua,Book Antiqua_MSFontService,sans-serif" font-style="italic" font-weight="400" font-size="41" transform="matrix(1 0 0 1 2621 1101)">v</text><text font-family="Times New Roman,Times New Roman_MSFontService,sans-serif" font-style="italic" font-weight="400" font-size="28" transform="matrix(1 0 0 1 2641.63 1110)">y</text><text font-family="Times New Roman,Times New Roman_MSFontService,sans-serif" font-style="italic" font-weight="400" font-size="41" transform="matrix(1 0 0 1 2920.34 1362)">t</text><text font-family="Times New Roman,Times New Roman_MSFontService,sans-serif" font-style="italic" font-weight="400" font-size="41" transform="matrix(1 0 0 1 2624.03 1340)">O</text><text font-family="Times New Roman,Times New Roman_MSFontService,sans-serif" font-weight="400" font-size="48" transform="matrix(1 0 0 1 2763.84 1410)">D</text><path d="M2921.08 1323.15 2669 1323.15 2667.85 1322 2667.85 1092.92 2670.15 1092.92 2670.15 1322 2669 1320.85 2921.08 1320.85ZM2916.5 1312.83 2944 1322 2916.5 1331.17ZM2659.83 1097.5 2669 1070 2678.17 1097.5Z"/><path d="M1517.5 1321.5C1601.15 1306.32 1677.8 1252.59 1728.5 1150.5" stroke="#000000" stroke-width="4.58333" stroke-miterlimit="8" fill="none" fill-rule="evenodd"/><path d="M2284.5 1195.5 2502.5 1195.5" stroke="#000000" stroke-width="4.58333" stroke-miterlimit="8" fill="none" fill-rule="evenodd"/><path d="M0 171C87.159 169.833 160.297 102.086 211 0" stroke="#000000" stroke-width="4.58333" stroke-miterlimit="8" fill="none" fill-rule="evenodd" transform="matrix(1 0 0 -1 1900.5 1321.5)"/><path d="M0 0 201.027 160.766" stroke="#000000" stroke-width="4.58333" stroke-miterlimit="8" fill="none" fill-rule="evenodd" transform="matrix(1 0 0 -1 2669.5 1321.27)"/></g></svg>
