<svg width="487" height="157" xmlns="http://www.w3.org/2000/svg" xmlns:xlink="http://www.w3.org/1999/xlink" xml:space="preserve" overflow="hidden"><g transform="translate(-1958 -1158)"><path d="M2046.5 1260.5C2046.5 1241.17 2062.17 1225.5 2081.5 1225.5 2100.83 1225.5 2116.5 1241.17 2116.5 1260.5 2116.5 1279.83 2100.83 1295.5 2081.5 1295.5 2062.17 1295.5 2046.5 1279.83 2046.5 1260.5Z" stroke="#000000" stroke-width="4.58333" stroke-miterlimit="8" fill="#F2F2F2" fill-rule="evenodd"/><text font-family="Times New Roman,Times New Roman_MSFontService,sans-serif" font-style="italic" font-weight="400" font-size="41" transform="matrix(1 0 0 1 2060.29 1273)">M</text><text font-family="Book Antiqua,Book Antiqua_MSFontService,sans-serif" font-style="italic" font-weight="400" font-size="41" transform="matrix(1 0 0 1 2191.9 1237)">v</text><text font-family="Times New Roman,Times New Roman_MSFontService,sans-serif" font-weight="400" font-size="41" transform="matrix(1 0 0 1 2072.74 1211)">a</text><text font-family="Times New Roman,Times New Roman_MSFontService,sans-serif" font-weight="400" font-size="41" transform="matrix(1 0 0 1 2303.44 1211)">b</text><path d="M2280.5 1260.5C2280.5 1241.17 2296.17 1225.5 2315.5 1225.5 2334.83 1225.5 2350.5 1241.17 2350.5 1260.5 2350.5 1279.83 2334.83 1295.5 2315.5 1295.5 2296.17 1295.5 2280.5 1279.83 2280.5 1260.5Z" stroke="#000000" stroke-width="4.58333" stroke-miterlimit="8" fill="none" fill-rule="evenodd"/><text font-family="Times New Roman,Times New Roman_MSFontService,sans-serif" font-style="italic" font-weight="400" font-size="41" transform="matrix(1 0 0 1 2300.1 1269)">m</text><path d="M4.87692e-06-1.14583 61.875-1.14557 61.875 1.1461-4.87692e-06 1.14583ZM57.2917-9.16642 84.7917 0.000360892 57.2916 9.16691Z" transform="matrix(1 0 0 -1 2162 1262)"/><path d="M1958.5 1295.5 2441.81 1295.5" stroke="#000000" stroke-width="4.58333" stroke-miterlimit="8" fill="none" fill-rule="evenodd"/><path d="M0 0 18.6747 19.1197" stroke="#000000" stroke-width="2.29167" stroke-miterlimit="8" fill="none" fill-rule="evenodd" transform="matrix(1 0 0 -1 1961 1314.12)"/><path d="M0 0 18.6747 19.1197" stroke="#000000" stroke-width="2.29167" stroke-miterlimit="8" fill="none" fill-rule="evenodd" transform="matrix(1 0 0 -1 1990 1314.12)"/><path d="M0 0 18.6747 19.1197" stroke="#000000" stroke-width="2.29167" stroke-miterlimit="8" fill="none" fill-rule="evenodd" transform="matrix(1 0 0 -1 2018 1314.12)"/><path d="M0 0 18.6747 19.1197" stroke="#000000" stroke-width="2.29167" stroke-miterlimit="8" fill="none" fill-rule="evenodd" transform="matrix(1 0 0 -1 2047 1314.12)"/><path d="M0 0 18.6747 19.1197" stroke="#000000" stroke-width="2.29167" stroke-miterlimit="8" fill="none" fill-rule="evenodd" transform="matrix(1 0 0 -1 2075 1314.12)"/><path d="M0 0 18.6747 19.1197" stroke="#000000" stroke-width="2.29167" stroke-miterlimit="8" fill="none" fill-rule="evenodd" transform="matrix(1 0 0 -1 2104 1314.12)"/><path d="M0 0 18.6747 19.1197" stroke="#000000" stroke-width="2.29167" stroke-miterlimit="8" fill="none" fill-rule="evenodd" transform="matrix(1 0 0 -1 2132 1314.12)"/><path d="M0 0 18.6747 19.1197" stroke="#000000" stroke-width="2.29167" stroke-miterlimit="8" fill="none" fill-rule="evenodd" transform="matrix(1 0 0 -1 2161 1314.12)"/><path d="M0 0 18.6747 19.1197" stroke="#000000" stroke-width="2.29167" stroke-miterlimit="8" fill="none" fill-rule="evenodd" transform="matrix(1 0 0 -1 2189 1314.12)"/><path d="M0 0 18.6747 19.1197" stroke="#000000" stroke-width="2.29167" stroke-miterlimit="8" fill="none" fill-rule="evenodd" transform="matrix(1 0 0 -1 2218 1314.12)"/><path d="M0 0 18.6747 19.1197" stroke="#000000" stroke-width="2.29167" stroke-miterlimit="8" fill="none" fill-rule="evenodd" transform="matrix(1 0 0 -1 2246 1314.12)"/><path d="M0 0 18.6747 19.1197" stroke="#000000" stroke-width="2.29167" stroke-miterlimit="8" fill="none" fill-rule="evenodd" transform="matrix(1 0 0 -1 2275 1314.12)"/><path d="M0 0 18.6747 19.1197" stroke="#000000" stroke-width="2.29167" stroke-miterlimit="8" fill="none" fill-rule="evenodd" transform="matrix(1 0 0 -1 2304 1314.12)"/><path d="M0 0 18.6747 19.1197" stroke="#000000" stroke-width="2.29167" stroke-miterlimit="8" fill="none" fill-rule="evenodd" transform="matrix(1 0 0 -1 2332 1314.12)"/><path d="M0 0 18.6747 19.1197" stroke="#000000" stroke-width="2.29167" stroke-miterlimit="8" fill="none" fill-rule="evenodd" transform="matrix(1 0 0 -1 2360 1314.12)"/><path d="M0 0 18.6747 19.1197" stroke="#000000" stroke-width="2.29167" stroke-miterlimit="8" fill="none" fill-rule="evenodd" transform="matrix(1 0 0 -1 2389 1314.12)"/><path d="M0 0 18.6747 19.1197" stroke="#000000" stroke-width="2.29167" stroke-miterlimit="8" fill="none" fill-rule="evenodd" transform="matrix(1 0 0 -1 2418 1314.12)"/></g></svg>