<svg width="879" height="890" xmlns="http://www.w3.org/2000/svg" xmlns:xlink="http://www.w3.org/1999/xlink" xml:space="preserve" overflow="hidden"><g transform="translate(-976 -695)"><path d="M1582.5 838C1582.5 834.963 1585.63 832.5 1589.5 832.5 1593.37 832.5 1596.5 834.963 1596.5 838 1596.5 841.038 1593.37 843.5 1589.5 843.5 1585.63 843.5 1582.5 841.038 1582.5 838Z" stroke="#000000" stroke-width="3.4375" stroke-linejoin="round" stroke-miterlimit="10" fill-rule="evenodd"/><path d="M1471.5 957C1471.5 953.962 1474.63 951.5 1478.5 951.5 1482.37 951.5 1485.5 953.962 1485.5 957 1485.5 960.038 1482.37 962.5 1478.5 962.5 1474.63 962.5 1471.5 960.038 1471.5 957Z" stroke="#000000" stroke-width="3.4375" stroke-linejoin="round" stroke-miterlimit="10" fill-rule="evenodd"/><path d="M1379.5 1049.5C1379.5 1046.19 1382.63 1043.5 1386.5 1043.5 1390.37 1043.5 1393.5 1046.19 1393.5 1049.5 1393.5 1052.81 1390.37 1055.5 1386.5 1055.5 1382.63 1055.5 1379.5 1052.81 1379.5 1049.5Z" stroke="#000000" stroke-width="3.4375" stroke-linejoin="round" stroke-miterlimit="10" fill-rule="evenodd"/><path d="M1296.5 1135.5C1296.5 1132.19 1299.63 1129.5 1303.5 1129.5 1307.37 1129.5 1310.5 1132.19 1310.5 1135.5 1310.5 1138.81 1307.37 1141.5 1303.5 1141.5 1299.63 1141.5 1296.5 1138.81 1296.5 1135.5Z" stroke="#000000" stroke-width="3.4375" stroke-linejoin="round" stroke-miterlimit="10" fill-rule="evenodd"/><path d="M1224.5 1220.5C1224.5 1217.19 1227.63 1214.5 1231.5 1214.5 1235.37 1214.5 1238.5 1217.19 1238.5 1220.5 1238.5 1223.81 1235.37 1226.5 1231.5 1226.5 1227.63 1226.5 1224.5 1223.81 1224.5 1220.5Z" stroke="#000000" stroke-width="3.4375" stroke-linejoin="round" stroke-miterlimit="10" fill-rule="evenodd"/><path d="M1163.5 1280C1163.5 1276.96 1166.63 1274.5 1170.5 1274.5 1174.37 1274.5 1177.5 1276.96 1177.5 1280 1177.5 1283.04 1174.37 1285.5 1170.5 1285.5 1166.63 1285.5 1163.5 1283.04 1163.5 1280Z" stroke="#000000" stroke-width="3.4375" stroke-linejoin="round" stroke-miterlimit="10" fill-rule="evenodd"/><text font-family="Times New Roman,Times New Roman_MSFontService,sans-serif" font-weight="400" font-size="41" transform="matrix(1 0 0 1 1154.68 1476)">0.05</text><text font-family="Times New Roman,Times New Roman_MSFontService,sans-serif" font-weight="400" font-size="41" transform="matrix(1 0 0 1 1276.14 1476)">0.10</text><text font-family="Times New Roman,Times New Roman_MSFontService,sans-serif" font-weight="400" font-size="41" transform="matrix(1 0 0 1 1401.47 1476)">0.15</text><text font-family="Times New Roman,Times New Roman_MSFontService,sans-serif" font-weight="400" font-size="41" transform="matrix(1 0 0 1 1523.75 1475)">0.20</text><text font-family="Times New Roman,Times New Roman_MSFontService,sans-serif" font-weight="400" font-size="41" transform="matrix(1 0 0 1 1646.81 1476)">0.25</text><text font-family="Times New Roman,Times New Roman_MSFontService,sans-serif" font-style="italic" font-weight="400" font-size="41" transform="matrix(1 0 0 1 1750.68 1476)">r</text><text font-family="Times New Roman,Times New Roman_MSFontService,sans-serif" font-weight="400" font-size="28" transform="matrix(1 0 0 1 1766.72 1464)">2</text><text font-family="Times New Roman,Times New Roman_MSFontService,sans-serif" font-weight="400" font-size="41" transform="matrix(1 0 0 1 1780.47 1476)">/m</text><text font-family="Times New Roman,Times New Roman_MSFontService,sans-serif" font-weight="400" font-size="28" transform="matrix(1 0 0 1 1824.01 1464)">2</text><text font-family="Times New Roman,Times New Roman_MSFontService,sans-serif" font-weight="400" font-size="41" transform="matrix(1 0 0 1 1001.32 1375)">1.3</text><text font-family="Times New Roman,Times New Roman_MSFontService,sans-serif" font-weight="400" font-size="41" transform="matrix(1 0 0 1 1001.32 1303)">1.4</text><text font-family="Times New Roman,Times New Roman_MSFontService,sans-serif" font-weight="400" font-size="41" transform="matrix(1 0 0 1 1001.32 1232)">1.5</text><text font-family="Times New Roman,Times New Roman_MSFontService,sans-serif" font-weight="400" font-size="41" transform="matrix(1 0 0 1 1001.32 1159)">1.6</text><text font-family="Times New Roman,Times New Roman_MSFontService,sans-serif" font-weight="400" font-size="41" transform="matrix(1 0 0 1 1001.32 1087)">1.7</text><text font-family="Times New Roman,Times New Roman_MSFontService,sans-serif" font-weight="400" font-size="41" transform="matrix(1 0 0 1 1001.32 1015)">1.8</text><text font-family="Times New Roman,Times New Roman_MSFontService,sans-serif" font-weight="400" font-size="41" transform="matrix(1 0 0 1 1001.32 943)">1.9</text><text font-family="Times New Roman,Times New Roman_MSFontService,sans-serif" font-weight="400" font-size="41" transform="matrix(1 0 0 1 1001.32 870)">2.0</text><text font-family="Times New Roman,Times New Roman_MSFontService,sans-serif" font-weight="400" font-size="41" transform="matrix(1 0 0 1 1001.32 799)">2.1</text><text font-family="Times New Roman,Times New Roman_MSFontService,sans-serif" font-weight="400" font-size="41" transform="matrix(1 0 0 1 1001.32 1451)">1.2</text><path d="M1.14583-5.81225e-07 1.14618 688.55-1.14548 688.55-1.14583 5.81225e-07ZM9.16701 683.967 0.000360892 711.467-9.16632 683.967Z" transform="matrix(1 0 0 -1 1067 1433.47)"/><path d="M1067 1398 1080.75 1398" stroke="#000000" stroke-width="2.29167" stroke-linejoin="round" stroke-miterlimit="10" fill="none" fill-rule="evenodd"/><path d="M1067 1362 1091.01 1362" stroke="#000000" stroke-width="2.29167" stroke-linejoin="round" stroke-miterlimit="10" fill="none" fill-rule="evenodd"/><path d="M1067 1326 1080.75 1326" stroke="#000000" stroke-width="2.29167" stroke-linejoin="round" stroke-miterlimit="10" fill="none" fill-rule="evenodd"/><path d="M1067 1290 1091.01 1290" stroke="#000000" stroke-width="2.29167" stroke-linejoin="round" stroke-miterlimit="10" fill="none" fill-rule="evenodd"/><path d="M1067 1254 1080.75 1254" stroke="#000000" stroke-width="2.29167" stroke-linejoin="round" stroke-miterlimit="10" fill="none" fill-rule="evenodd"/><path d="M1067 1218 1091.01 1218" stroke="#000000" stroke-width="2.29167" stroke-linejoin="round" stroke-miterlimit="10" fill="none" fill-rule="evenodd"/><path d="M1067 1182 1080.75 1182" stroke="#000000" stroke-width="2.29167" stroke-linejoin="round" stroke-miterlimit="10" fill="none" fill-rule="evenodd"/><path d="M1067 1146 1091.01 1146" stroke="#000000" stroke-width="2.29167" stroke-linejoin="round" stroke-miterlimit="10" fill="none" fill-rule="evenodd"/><path d="M1067 1110 1080.75 1110" stroke="#000000" stroke-width="2.29167" stroke-linejoin="round" stroke-miterlimit="10" fill="none" fill-rule="evenodd"/><path d="M1067 1074 1091.01 1074" stroke="#000000" stroke-width="2.29167" stroke-linejoin="round" stroke-miterlimit="10" fill="none" fill-rule="evenodd"/><path d="M1067 1039 1080.75 1039" stroke="#000000" stroke-width="2.29167" stroke-linejoin="round" stroke-miterlimit="10" fill="none" fill-rule="evenodd"/><path d="M1067 1002 1091.01 1002" stroke="#000000" stroke-width="2.29167" stroke-linejoin="round" stroke-miterlimit="10" fill="none" fill-rule="evenodd"/><path d="M1067 967 1080.75 967" stroke="#000000" stroke-width="2.29167" stroke-linejoin="round" stroke-miterlimit="10" fill="none" fill-rule="evenodd"/><path d="M1067 931 1091.01 931" stroke="#000000" stroke-width="2.29167" stroke-linejoin="round" stroke-miterlimit="10" fill="none" fill-rule="evenodd"/><path d="M1067 859 1091.01 859" stroke="#000000" stroke-width="2.29167" stroke-linejoin="round" stroke-miterlimit="10" fill="none" fill-rule="evenodd"/><path d="M1067 823 1080.75 823" stroke="#000000" stroke-width="2.29167" stroke-linejoin="round" stroke-miterlimit="10" fill="none" fill-rule="evenodd"/><path d="M1067 787 1091.01 787" stroke="#000000" stroke-width="2.29167" stroke-linejoin="round" stroke-miterlimit="10" fill="none" fill-rule="evenodd"/><path d="M1535.96 895 1068 895" stroke="#000000" stroke-width="2.29167" stroke-linejoin="round" stroke-miterlimit="10" stroke-dasharray="9.16667 6.875" fill="none" fill-rule="evenodd"/><path d="M0 0 94.0016 103.86" stroke="#000000" stroke-width="2.29167" stroke-linejoin="round" stroke-miterlimit="10" stroke-dasharray="9.16667 6.875" fill="none" fill-rule="evenodd" transform="matrix(1 0 0 -1 1067 1397.86)"/><path d="M5.79096e-07-1.14583 691.167-1.14548 691.167 1.14618-5.79096e-07 1.14583ZM686.583-9.16632 714.083 0.000360892 686.583 9.16701Z" transform="matrix(1 0 0 -1 1067 1433)"/><path d="M1092 1422 1092 1433.41" stroke="#000000" stroke-width="2.29167" stroke-linejoin="round" stroke-miterlimit="10" fill="none" fill-rule="evenodd"/><path d="M1117 1422 1117 1433.41" stroke="#000000" stroke-width="2.29167" stroke-linejoin="round" stroke-miterlimit="10" fill="none" fill-rule="evenodd"/><path d="M1141 1422 1141 1433.41" stroke="#000000" stroke-width="2.29167" stroke-linejoin="round" stroke-miterlimit="10" fill="none" fill-rule="evenodd"/><path d="M1166 1422 1166 1433.41" stroke="#000000" stroke-width="2.29167" stroke-linejoin="round" stroke-miterlimit="10" fill="none" fill-rule="evenodd"/><path d="M1190 1412 1190 1432.05" stroke="#000000" stroke-width="2.29167" stroke-linejoin="round" stroke-miterlimit="10" fill="none" fill-rule="evenodd"/><path d="M1215 1422 1215 1433.41" stroke="#000000" stroke-width="2.29167" stroke-linejoin="round" stroke-miterlimit="10" fill="none" fill-rule="evenodd"/><path d="M1239 1422 1239 1433.41" stroke="#000000" stroke-width="2.29167" stroke-linejoin="round" stroke-miterlimit="10" fill="none" fill-rule="evenodd"/><path d="M1264 1422 1264 1433.41" stroke="#000000" stroke-width="2.29167" stroke-linejoin="round" stroke-miterlimit="10" fill="none" fill-rule="evenodd"/><path d="M1289 1422 1289 1433.41" stroke="#000000" stroke-width="2.29167" stroke-linejoin="round" stroke-miterlimit="10" fill="none" fill-rule="evenodd"/><path d="M1313 1412 1313 1432.05" stroke="#000000" stroke-width="2.29167" stroke-linejoin="round" stroke-miterlimit="10" fill="none" fill-rule="evenodd"/><path d="M1338 1422 1338 1433.41" stroke="#000000" stroke-width="2.29167" stroke-linejoin="round" stroke-miterlimit="10" fill="none" fill-rule="evenodd"/><path d="M1363 1422 1363 1433.41" stroke="#000000" stroke-width="2.29167" stroke-linejoin="round" stroke-miterlimit="10" fill="none" fill-rule="evenodd"/><path d="M1387 1422 1387 1433.41" stroke="#000000" stroke-width="2.29167" stroke-linejoin="round" stroke-miterlimit="10" fill="none" fill-rule="evenodd"/><path d="M1412 1422 1412 1433.41" stroke="#000000" stroke-width="2.29167" stroke-linejoin="round" stroke-miterlimit="10" fill="none" fill-rule="evenodd"/><path d="M1437 1412 1437 1432.05" stroke="#000000" stroke-width="2.29167" stroke-linejoin="round" stroke-miterlimit="10" fill="none" fill-rule="evenodd"/><path d="M1461 1422 1461 1433.41" stroke="#000000" stroke-width="2.29167" stroke-linejoin="round" stroke-miterlimit="10" fill="none" fill-rule="evenodd"/><path d="M1486 1422 1486 1433.41" stroke="#000000" stroke-width="2.29167" stroke-linejoin="round" stroke-miterlimit="10" fill="none" fill-rule="evenodd"/><path d="M1511 1422 1511 1433.41" stroke="#000000" stroke-width="2.29167" stroke-linejoin="round" stroke-miterlimit="10" fill="none" fill-rule="evenodd"/><path d="M1560 1412 1560 1432.05" stroke="#000000" stroke-width="2.29167" stroke-linejoin="round" stroke-miterlimit="10" fill="none" fill-rule="evenodd"/><path d="M1584 1422 1584 1433.41" stroke="#000000" stroke-width="2.29167" stroke-linejoin="round" stroke-miterlimit="10" fill="none" fill-rule="evenodd"/><path d="M1609 1422 1609 1433.41" stroke="#000000" stroke-width="2.29167" stroke-linejoin="round" stroke-miterlimit="10" fill="none" fill-rule="evenodd"/><path d="M1633 1422 1633 1433.41" stroke="#000000" stroke-width="2.29167" stroke-linejoin="round" stroke-miterlimit="10" fill="none" fill-rule="evenodd"/><path d="M1658 1422 1658 1433.41" stroke="#000000" stroke-width="2.29167" stroke-linejoin="round" stroke-miterlimit="10" fill="none" fill-rule="evenodd"/><path d="M1683 1412 1683 1432.05" stroke="#000000" stroke-width="2.29167" stroke-linejoin="round" stroke-miterlimit="10" fill="none" fill-rule="evenodd"/><path d="M0 0 0.000360892 539.214" stroke="#000000" stroke-width="2.29167" stroke-linejoin="round" stroke-miterlimit="10" stroke-dasharray="9.16667 6.875" fill="none" fill-rule="evenodd" transform="matrix(1 0 0 -1 1535 1433.21)"/><path d="M0 0 470.926 508.451" stroke="#000000" stroke-width="4.58333" stroke-linejoin="round" stroke-miterlimit="10" fill="none" fill-rule="evenodd" transform="matrix(-1 0 0 1 1634.43 786.5)"/></g></svg>